# xmcd
#
# Track frame offsets:
# 150
# 23214
# 37599
# 61850
# 78764
# 92969
# 112138
# 127461
# 146472
# 164621
# 189254
# 207506
# 228609
# 241963
# 263348
# 282045
# 300129
# 313086
# 331099
# 346560
#
# Disc length: 4798 seconds
#
#
# Revision: 0
# Processed by: cddbd v1.5.1PL0 Copyright (c) Steve Scherf et al.
# Submitted via: FreeRIP 2.941 
#
DISCID=0a12bc14
DTITLE=ras kass - see what i see - vol. 2
DYEAR=1479
DGENRE=hip hop
TTITLE0=2000 B.C. (Emphasys and Elixir Remix) feat. HRSMN
TTITLE1=Up From Da Underground feat. Krs-One, Xzibit and Mad Lion
TTITLE2=Horsementality feat. HRSMN
TTITLE3=All Checks Cleared feat. DBA
TTITLE4=Articulate Thugs
TTITLE5=Conceited B*stard
TTITLE6=I Gets Paper (Remix) feat. Mr. Dog and Mac Money
TTITLE7=Take It Off feat. Luniz
TTITLE8=Pledge Allegience feat. M.O.P. and Jaz-O
TTITLE9=The Little Children feat. David Axelrod
TTITLE10=Oohwee-Funkeec
TTITLE11=Come Widdit (Joe Quick Remix)
TTITLE12=Freestyle feat. Krs One and Chino XL
TTITLE13=Horsemen Talk feat. HRSMN
TTITLE14=The Purist Breed feat. Canibus and Pharoahe Monch
TTITLE15=Understandable Smooth
TTITLE16=In Da Club Freestyle feat. Ranjaz
TTITLE17=Go feat. Phil Da Agony, Chace Infinite and Talib Kweli
TTITLE18=See What I See feat. Pharoahe Monch
TTITLE19=Spazz Out feat. David Banner
EXTD=
EXTT0=
EXTT1=
EXTT2=
EXTT3=
EXTT4=
EXTT5=
EXTT6=
EXTT7=
EXTT8=
EXTT9=
EXTT10=
EXTT11=
EXTT12=
EXTT13=
EXTT14=
EXTT15=
EXTT16=
EXTT17=
EXTT18=
EXTT19=
PLAYORDER=
